<svg width="657.9px" height="121.4px" xmlns="http://www.w3.org/2000/svg" viewBox="-78.94687499999998 14.300000000000004 657.89375 121.39999999999999" style="background: rgba(0, 0, 0, 0)" preserveAspectRatio="xMidYMid"><defs><linearGradient id="editing-gradient-gradient" x1="0" x2="1" y1="0.5" y2="0.5" gradientUnits="objectBoundingBox"><stop offset="0" stop-color="#ff00ff"></stop><stop offset="1" stop-color="#00ffff"></stop></linearGradient></defs><g><g transform="matrix(1.4,0,0,1.5,-63.1,30.9)"><path d="M 9 50.2 L -5 50.2 L 3.1 8 L 17.2 8 L 9 50.2 Z M 64.7 51.5 L 64.7 51.5 L 64.7 51.5 Q 57 51.5 57 45.5 L 57 45.5 L 57 45.5 Q 57 42.8 58.1 37.8 L 58.1 37.8 L 58.1 37.8 Q 59.2 32.7 59.6 30.6 L 59.6 30.6 L 59.6 30.6 Q 60.5 25.9 60.5 24.5 L 60.5 24.5 L 60.5 24.5 Q 60.5 21.2 58 21.2 L 58 21.2 L 58 21.2 Q 56.4 21.2 54.9 23.4 L 54.9 23.4 L 54.9 23.4 Q 53.4 25.6 52.7 30 L 52.7 30 L 48.7 50.2 L 36.2 51.5 L 39.7 34.1 L 39.7 34.1 Q 40.2 31.2 40.8 27.9 L 40.8 27.9 L 40.8 27.9 Q 41.3 24.7 41.3 24.2 L 41.3 24.2 L 41.3 24.2 Q 41.3 21.2 39.1 21.2 L 39.1 21.2 L 39.1 21.2 Q 37.6 21.2 36 23.4 L 36 23.4 L 36 23.4 Q 34.4 25.6 33.5 30 L 33.5 30 L 29.6 50.2 L 17 51.5 L 23.7 17.6 L 34.2 16.3 L 33.1 22.7 L 33.1 22.7 Q 34.7 19.3 37.8 17.8 L 37.8 17.8 L 37.8 17.8 Q 40.9 16.3 45.7 16.3 L 45.7 16.3 L 45.7 16.3 Q 48.4 16.3 50.2 17.6 L 50.2 17.6 L 50.2 17.6 Q 52 19 52.6 21.1 L 52.6 21.1 L 52.6 21.1 Q 53.7 18.9 56.5 17.6 L 56.5 17.6 L 56.5 17.6 Q 59.3 16.3 62.7 16.3 L 62.7 16.3 L 62.7 16.3 Q 66.1 16.3 67.8 17 L 67.8 17 L 67.8 17 Q 69.5 17.8 70.5 19 L 70.5 19 L 70.5 19 Q 72.2 21.2 72.2 25.3 L 72.2 25.3 L 72.2 25.3 Q 72.2 29.3 70.5 37.7 L 70.5 37.7 L 70.5 37.7 Q 69.6 41.8 69.6 43.3 L 69.6 43.3 L 69.6 43.3 Q 69.6 44.8 70.5 45.7 L 70.5 45.7 L 70.5 45.7 Q 71.4 46.6 72.6 46.7 L 72.6 46.7 L 72.6 46.7 Q 72 48.9 69.8 50.2 L 69.8 50.2 L 69.8 50.2 Q 67.6 51.5 64.7 51.5 Z M 80.3 48.3 L 80.3 48.3 L 80.3 48.3 Q 78.8 46.6 78.2 44 L 78.2 44 L 78.2 44 Q 77.5 41.4 77.5 37.1 L 77.5 37.1 L 77.5 37.1 Q 77.5 32.8 79 28.9 L 79 28.9 L 79 28.9 Q 80.4 25 83.1 22.2 L 83.1 22.2 L 83.1 22.2 Q 88.6 16.3 97.7 16.3 L 97.7 16.3 L 97.7 16.3 Q 101 16.3 103.4 17.4 L 103.4 17.4 L 114.3 16.3 L 109.6 41.2 L 109.6 41.2 Q 109.4 42 109.4 43.4 L 109.4 43.4 L 109.4 43.4 Q 109.4 44.8 110.2 45.7 L 110.2 45.7 L 110.2 45.7 Q 111.1 46.6 112.4 46.7 L 112.4 46.7 L 112.4 46.7 Q 111.7 48.9 109.4 50.2 L 109.4 50.2 L 109.4 50.2 Q 107.1 51.5 104.4 51.5 L 104.4 51.5 L 104.4 51.5 Q 101.8 51.5 100.1 50.5 L 100.1 50.5 L 100.1 50.5 Q 98.3 49.5 97.8 47.8 L 97.8 47.8 L 97.8 47.8 Q 96.8 49.4 94.6 50.5 L 94.6 50.5 L 94.6 50.5 Q 92.4 51.5 89.5 51.5 L 89.5 51.5 L 89.5 51.5 Q 86.6 51.5 84.2 50.7 L 84.2 50.7 L 84.2 50.7 Q 81.8 49.9 80.3 48.3 Z M 93.8 22.3 L 93.8 22.3 L 93.8 22.3 Q 93.1 23.5 92.5 25.4 L 92.5 25.4 L 92.5 25.4 Q 91.8 27.4 90.8 32.6 L 90.8 32.6 L 90.8 32.6 Q 89.7 37.8 89.7 41.5 L 89.7 41.5 L 89.7 41.5 Q 89.7 45.2 90.3 46.3 L 90.3 46.3 L 90.3 46.3 Q 90.9 47.4 91.9 47.4 L 91.9 47.4 L 91.9 47.4 Q 93.9 47.4 95.4 45.4 L 95.4 45.4 L 95.4 45.4 Q 97 43.5 97.5 40 L 97.5 40 L 100.9 21.3 L 100.9 21.3 Q 99.6 20.1 98 20.1 L 98 20.1 L 98 20.1 Q 96.4 20.1 95.5 20.6 L 95.5 20.6 L 95.5 20.6 Q 94.6 21.1 93.8 22.3 Z M 122 23.5 L 122 23.5 L 122 23.5 Q 124.2 20.4 127.5 18.3 L 127.5 18.3 L 127.5 18.3 Q 130.8 16.3 134.8 16.3 L 134.8 16.3 L 134.8 16.3 Q 138.9 16.3 140.8 17.6 L 140.8 17.6 L 153.3 16.3 L 149 40.9 L 149 40.9 Q 146.7 53.4 142 58.3 L 142 58.3 L 142 58.3 Q 137.5 63 128.6 63 L 128.6 63 L 128.6 63 Q 121.9 63 118.1 60.9 L 118.1 60.9 L 118.1 60.9 Q 114.2 58.8 114.2 55.3 L 114.2 55.3 L 114.2 55.3 Q 114.2 52.6 116.2 51.1 L 116.2 51.1 L 116.2 51.1 Q 118.2 49.6 121.3 49.6 L 121.3 49.6 L 121.3 49.6 Q 124 49.6 126 50.8 L 126 50.8 L 126 50.8 Q 127.2 51.5 127.8 52.4 L 127.8 52.4 L 127.8 52.4 Q 126.3 53.7 126.3 55.8 L 126.3 55.8 L 126.3 55.8 Q 126.3 58.5 128.9 58.5 L 128.9 58.5 L 128.9 58.5 Q 133.2 58.5 135.6 48.4 L 135.6 48.4 L 135.6 48.4 Q 136.3 45.7 136.9 42.9 L 136.9 42.9 L 136.9 42.9 Q 134 46.4 127.5 46.4 L 127.5 46.4 L 127.5 46.4 Q 122.9 46.4 120.3 44.3 L 120.3 44.3 L 120.3 44.3 Q 117.7 42.1 117.7 37 L 117.7 37 L 117.7 37 Q 117.7 33.8 118.8 30.1 L 118.8 30.1 L 118.8 30.1 Q 119.9 26.5 122 23.5 Z M 130.4 37.1 L 130.4 37.1 L 130.4 37.1 Q 130.4 41.5 132.6 41.5 L 132.6 41.5 L 132.6 41.5 Q 134.1 41.5 135.6 39.8 L 135.6 39.8 L 135.6 39.8 Q 136.8 38.5 137.2 36.5 L 137.2 36.5 L 140.5 20.1 L 140.5 20.1 Q 140.2 20 139.8 19.9 L 139.8 19.9 L 139.8 19.9 Q 139.2 19.6 138.4 19.6 L 138.4 19.6 L 138.4 19.6 Q 134.5 19.6 132.2 26 L 132.2 26 L 132.2 26 Q 130.4 31 130.4 37.1 Z M 181.8 39.4 L 181.8 39.4 L 181.8 39.4 Q 183.4 40.5 183.4 42.9 L 183.4 42.9 L 183.4 42.9 Q 183.4 45.3 182.1 46.8 L 182.1 46.8 L 182.1 46.8 Q 180.9 48.3 178.9 49.4 L 178.9 49.4 L 178.9 49.4 Q 174.8 51.5 170.4 51.5 L 170.4 51.5 L 170.4 51.5 Q 166 51.5 163.4 50.5 L 163.4 50.5 L 163.4 50.5 Q 160.8 49.6 159.1 47.8 L 159.1 47.8 L 159.1 47.8 Q 155.7 44.4 155.7 38.2 L 155.7 38.2 L 155.7 38.2 Q 155.7 28.5 161 22.6 L 161 22.6 L 161 22.6 Q 166.6 16.3 176.4 16.3 L 176.4 16.3 L 176.4 16.3 Q 182.5 16.3 185.5 18.8 L 185.5 18.8 L 185.5 18.8 Q 187.7 20.8 187.7 23.9 L 187.7 23.9 L 187.7 23.9 Q 187.7 35.2 168.2 35.2 L 168.2 35.2 L 168.2 35.2 Q 168 36.8 168 38.2 L 168 38.2 L 168 38.2 Q 168 41.2 169.3 42.3 L 169.3 42.3 L 169.3 42.3 Q 170.6 43.4 173 43.4 L 173 43.4 L 173 43.4 Q 175.5 43.4 178.1 42.3 L 178.1 42.3 L 178.1 42.3 Q 180.7 41.2 181.8 39.4 Z M 168.7 32.4 L 168.7 32.4 L 168.7 32.4 Q 173.2 32.4 175.9 29.6 L 175.9 29.6 L 175.9 29.6 Q 178.5 26.9 178.5 22.6 L 178.5 22.6 L 178.5 22.6 Q 178.5 21.1 177.9 20.3 L 177.9 20.3 L 177.9 20.3 Q 177.4 19.5 176.3 19.5 L 176.3 19.5 L 176.3 19.5 Q 175.2 19.5 174.3 20 L 174.3 20 L 174.3 20 Q 173.4 20.4 172.4 21.8 L 172.4 21.8 L 172.4 21.8 Q 170 25 168.7 32.4 Z M 209 27.7 L 209 27.7 L 209 27.7 Q 209.9 25.4 209.9 23.3 L 209.9 23.3 L 209.9 23.3 Q 209.9 19.5 206.8 19.5 L 206.8 19.5 L 206.8 19.5 Q 205.2 19.5 203.9 21 L 203.9 21 L 203.9 21 Q 202.6 22.4 202.6 24.2 L 202.6 24.2 L 202.6 24.2 Q 202.6 25.5 203.6 26.5 L 203.6 26.5 L 203.6 26.5 Q 205.1 27.9 208.9 30.2 L 208.9 30.2 L 208.9 30.2 Q 212.7 32.5 214.1 34.4 L 214.1 34.4 L 214.1 34.4 Q 215.5 36.3 215.5 38.9 L 215.5 38.9 L 215.5 38.9 Q 215.5 41.5 214.3 43.9 L 214.3 43.9 L 214.3 43.9 Q 213 46.2 210.8 47.9 L 210.8 47.9 L 210.8 47.9 Q 206 51.5 198.3 51.5 L 198.3 51.5 L 198.3 51.5 Q 194.2 51.5 191 49.3 L 191 49.3 L 191 49.3 Q 187.8 47.2 187.8 44.7 L 187.8 44.7 L 187.8 44.7 Q 187.8 42.2 189.6 40.7 L 189.6 40.7 L 189.6 40.7 Q 191.4 39.3 194.1 39.3 L 194.1 39.3 L 194.1 39.3 Q 196.8 39.3 198.5 40.3 L 198.5 40.3 L 198.5 40.3 Q 197.6 42.4 197.6 43.8 L 197.6 43.8 L 197.6 43.8 Q 197.6 48 201.2 48 L 201.2 48 L 201.2 48 Q 202.7 48 203.8 47.1 L 203.8 47.1 L 203.8 47.1 Q 204.8 46.1 204.8 44.4 L 204.8 44.4 L 204.8 44.4 Q 204.8 41.2 199.3 37.7 L 199.3 37.7 L 199.3 37.7 Q 194.8 34.8 193.8 33.6 L 193.8 33.6 L 193.8 33.6 Q 192.1 31.6 192.1 29 L 192.1 29 L 192.1 29 Q 192.1 26.5 193.3 24 L 193.3 24 L 193.3 24 Q 194.5 21.6 196.7 19.9 L 196.7 19.9 L 196.7 19.9 Q 201.4 16.3 209.5 16.3 L 209.5 16.3 L 209.5 16.3 Q 213.7 16.3 216.2 17.9 L 216.2 17.9 L 216.2 17.9 Q 218.6 19.6 218.6 22.4 L 218.6 22.4 L 218.6 22.4 Q 218.6 25.2 216.9 26.8 L 216.9 26.8 L 216.9 26.8 Q 215.2 28.4 212.2 28.4 L 212.2 28.4 L 212.2 28.4 Q 210 28.4 209 27.7 Z M 260.1 29.6 L 273 28.4 L 273 28.4 Q 268.4 38.6 268.4 50.3 L 268.4 50.3 L 268.4 50.3 Q 266.7 51.5 264.2 51.5 L 264.2 51.5 L 264.2 51.5 Q 261.6 51.5 260 50.3 L 260 50.3 L 260 50.3 Q 258.4 49.1 258.1 47.9 L 258.1 47.9 L 258.1 47.9 Q 256.5 49.6 253.9 50.5 L 253.9 50.5 L 253.9 50.5 Q 251.3 51.5 248.6 51.5 L 248.6 51.5 L 248.6 51.5 Q 245.8 51.5 243.4 50.6 L 243.4 50.6 L 243.4 50.6 Q 241 49.7 239.2 47.7 L 239.2 47.7 L 239.2 47.7 Q 235.1 43.4 235.1 35.1 L 235.1 35.1 L 235.1 35.1 Q 235.1 22.3 241.9 14.6 L 241.9 14.6 L 241.9 14.6 Q 249 6.7 261.4 6.7 L 261.4 6.7 L 261.4 6.7 Q 270.1 6.7 273.1 11.2 L 273.1 11.2 L 273.1 11.2 Q 274.1 12.6 274.1 14.3 L 274.1 14.3 L 274.1 14.3 Q 274.1 16 273.4 17.4 L 273.4 17.4 L 273.4 17.4 Q 272.6 18.8 271.5 20 L 271.5 20 L 271.5 20 Q 268.7 22.6 265.3 22.6 L 265.3 22.6 L 265.3 22.6 Q 264 22.6 262.7 22.1 L 262.7 22.1 L 262.7 22.1 Q 263 20.2 263 17.9 L 263 17.9 L 263 17.9 Q 263 15.7 262.8 14.7 L 262.8 14.7 L 262.8 14.7 Q 262.6 13.7 262.3 12.8 L 262.3 12.8 L 262.3 12.8 Q 261.4 11.1 259.6 11.1 L 259.6 11.1 L 259.6 11.1 Q 257.8 11.1 255.8 13.1 L 255.8 13.1 L 255.8 13.1 Q 253.8 15 252.2 18.2 L 252.2 18.2 L 252.2 18.2 Q 248.6 25.4 248.6 34 L 248.6 34 L 248.6 34 Q 248.6 38 250.2 40.8 L 250.2 40.8 L 250.2 40.8 Q 251.8 43.9 254.8 43.9 L 254.8 43.9 L 254.8 43.9 Q 255.8 43.9 256.7 43.4 L 256.7 43.4 L 256.7 43.4 Q 257.7 42.8 258 42.5 L 258 42.5 L 260.1 29.6 Z M 278.9 48.3 L 278.9 48.3 L 278.9 48.3 Q 277.4 46.6 276.8 44 L 276.8 44 L 276.8 44 Q 276.1 41.4 276.1 37.1 L 276.1 37.1 L 276.1 37.1 Q 276.1 32.8 277.6 28.9 L 277.6 28.9 L 277.6 28.9 Q 279 25 281.7 22.2 L 281.7 22.2 L 281.7 22.2 Q 287.2 16.3 296.3 16.3 L 296.3 16.3 L 296.3 16.3 Q 299.6 16.3 301.9 17.4 L 301.9 17.4 L 312.9 16.3 L 308.2 41.2 L 308.2 41.2 Q 308 42 308 43.4 L 308 43.4 L 308 43.4 Q 308 44.8 308.8 45.7 L 308.8 45.7 L 308.8 45.7 Q 309.7 46.6 311 46.7 L 311 46.7 L 311 46.7 Q 310.3 48.9 308 50.2 L 308 50.2 L 308 50.2 Q 305.7 51.5 303 51.5 L 303 51.5 L 303 51.5 Q 300.4 51.5 298.6 50.5 L 298.6 50.5 L 298.6 50.5 Q 296.9 49.5 296.4 47.8 L 296.4 47.8 L 296.4 47.8 Q 295.4 49.4 293.2 50.5 L 293.2 50.5 L 293.2 50.5 Q 291 51.5 288.1 51.5 L 288.1 51.5 L 288.1 51.5 Q 285.2 51.5 282.8 50.7 L 282.8 50.7 L 282.8 50.7 Q 280.4 49.9 278.9 48.3 Z M 292.4 22.3 L 292.4 22.3 L 292.4 22.3 Q 291.7 23.5 291.1 25.4 L 291.1 25.4 L 291.1 25.4 Q 290.4 27.4 289.4 32.6 L 289.4 32.6 L 289.4 32.6 Q 288.3 37.8 288.3 41.5 L 288.3 41.5 L 288.3 41.5 Q 288.3 45.2 288.9 46.3 L 288.9 46.3 L 288.9 46.3 Q 289.5 47.4 290.5 47.4 L 290.5 47.4 L 290.5 47.4 Q 292.5 47.4 294 45.4 L 294 45.4 L 294 45.4 Q 295.5 43.5 296.1 40 L 296.1 40 L 299.5 21.3 L 299.5 21.3 Q 298.2 20.1 296.6 20.1 L 296.6 20.1 L 296.6 20.1 Q 295 20.1 294.1 20.6 L 294.1 20.6 L 294.1 20.6 Q 293.2 21.1 292.4 22.3 Z M 331.6 46.7 L 331.6 46.7 L 331.6 46.7 Q 329.7 51.5 323.3 51.5 L 323.3 51.5 L 323.3 51.5 Q 320.1 51.5 318.1 49.2 L 318.1 49.2 L 318.1 49.2 Q 316.4 47.4 316.4 45.3 L 316.4 45.3 L 316.4 45.3 Q 316.4 40.5 318.6 30 L 318.6 30 L 323.3 5.4 L 336.3 4.1 L 330.1 36.5 L 330.1 36.5 Q 329 41.2 329 42.9 L 329 42.9 L 329 42.9 Q 329 46.6 331.6 46.7 Z M 352.4 46.7 L 352.4 46.7 L 352.4 46.7 Q 350.4 51.5 344.1 51.5 L 344.1 51.5 L 344.1 51.5 Q 340.9 51.5 338.8 49.2 L 338.8 49.2 L 338.8 49.2 Q 337.1 47.4 337.1 45.3 L 337.1 45.3 L 337.1 45.3 Q 337.1 40.5 339.4 30 L 339.4 30 L 344.1 5.4 L 357 4.1 L 350.8 36.5 L 350.8 36.5 Q 349.8 41.2 349.8 42.9 L 349.8 42.9 L 349.8 42.9 Q 349.8 46.6 352.4 46.7 Z M 383.7 39.4 L 383.7 39.4 L 383.7 39.4 Q 385.3 40.5 385.3 42.9 L 385.3 42.9 L 385.3 42.9 Q 385.3 45.3 384.1 46.8 L 384.1 46.8 L 384.1 46.8 Q 382.9 48.3 380.9 49.4 L 380.9 49.4 L 380.9 49.4 Q 376.8 51.5 372.4 51.5 L 372.4 51.5 L 372.4 51.5 Q 368 51.5 365.4 50.5 L 365.4 50.5 L 365.4 50.5 Q 362.8 49.6 361.1 47.8 L 361.1 47.8 L 361.1 47.8 Q 357.7 44.4 357.7 38.2 L 357.7 38.2 L 357.7 38.2 Q 357.7 28.5 362.9 22.6 L 362.9 22.6 L 362.9 22.6 Q 368.6 16.3 378.4 16.3 L 378.4 16.3 L 378.4 16.3 Q 384.4 16.3 387.4 18.8 L 387.4 18.8 L 387.4 18.8 Q 389.7 20.8 389.7 23.9 L 389.7 23.9 L 389.7 23.9 Q 389.7 35.2 370.2 35.2 L 370.2 35.2 L 370.2 35.2 Q 370 36.8 370 38.2 L 370 38.2 L 370 38.2 Q 370 41.2 371.3 42.3 L 371.3 42.3 L 371.3 42.3 Q 372.6 43.4 375 43.4 L 375 43.4 L 375 43.4 Q 377.5 43.4 380.1 42.3 L 380.1 42.3 L 380.1 42.3 Q 382.6 41.2 383.7 39.4 Z M 370.7 32.4 L 370.7 32.4 L 370.7 32.4 Q 375.2 32.4 377.8 29.6 L 377.8 29.6 L 377.8 29.6 Q 380.5 26.9 380.5 22.6 L 380.5 22.6 L 380.5 22.6 Q 380.5 21.1 379.9 20.3 L 379.9 20.3 L 379.9 20.3 Q 379.4 19.5 378.3 19.5 L 378.3 19.5 L 378.3 19.5 Q 377.2 19.5 376.3 20 L 376.3 20 L 376.3 20 Q 375.4 20.4 374.4 21.8 L 374.4 21.8 L 374.4 21.8 Q 372 25 370.7 32.4 Z M 411.9 32.2 L 411.9 32.2 L 411.9 32.2 Q 414.2 28.1 414.2 24 L 414.2 24 L 414.2 24 Q 414.2 21.2 412.2 21.2 L 412.2 21.2 L 412.2 21.2 Q 410.7 21.2 409.1 23.8 L 409.1 23.8 L 409.1 23.8 Q 407.4 26.5 406.9 29.9 L 406.9 29.9 L 403.6 50.2 L 390.3 51.5 L 396.9 17.6 L 407.4 16.3 L 406.3 22.7 L 406.3 22.7 Q 409.4 16.3 416.4 16.3 L 416.4 16.3 L 416.4 16.3 Q 420.2 16.3 422.2 18.2 L 422.2 18.2 L 422.2 18.2 Q 424.2 20.1 424.2 24.1 L 424.2 24.1 L 424.2 24.1 Q 424.2 28 421.6 30.5 L 421.6 30.5 L 421.6 30.5 Q 419 33 414.6 33 L 414.6 33 L 414.6 33 Q 412.7 33 411.9 32.2 Z M 445.6 43 L 445.6 43 L 445.6 43 Q 442.2 46.4 436.2 46.4 L 436.2 46.4 L 436.2 46.4 Q 428.5 46.4 426.9 40.9 L 426.9 40.9 L 426.9 40.9 Q 426.4 39.2 426.4 37.3 L 426.4 37.3 L 426.4 37.3 Q 426.4 35.5 426.8 33.6 L 426.8 33.6 L 429.8 17.6 L 442.8 16.3 L 439.3 34.9 L 439.3 34.9 Q 439.2 35.7 439 36.6 L 439 36.6 L 439 36.6 Q 438.8 37.5 438.8 38.5 L 438.8 38.5 L 438.8 38.5 Q 438.8 39.4 439.1 40 L 439.1 40 L 439.1 40 Q 439.4 40.6 439.9 41 L 439.9 41 L 439.9 41 Q 440.6 41.5 442 41.5 L 442 41.5 L 442 41.5 Q 443.4 41.5 444.6 39.8 L 444.6 39.8 L 444.6 39.8 Q 445.8 38.2 446.3 35.3 L 446.3 35.3 L 449.8 17.6 L 462.5 16.3 L 457.7 41.4 L 457.7 41.4 Q 455.3 53.7 450.4 58.6 L 450.4 58.6 L 450.4 58.6 Q 447.9 61.1 444.7 62.1 L 444.7 62.1 L 444.7 62.1 Q 441.5 63.1 437.3 63.1 L 437.3 63.1 L 437.3 63.1 Q 430.6 63.1 426.7 61 L 426.7 61 L 426.7 61 Q 422.9 58.8 422.9 55.3 L 422.9 55.3 L 422.9 55.3 Q 422.9 52.7 424.9 51.2 L 424.9 51.2 L 424.9 51.2 Q 426.9 49.7 429.9 49.7 L 429.9 49.7 L 429.9 49.7 Q 432.6 49.7 434.7 50.8 L 434.7 50.8 L 434.7 50.8 Q 435.9 51.5 436.5 52.4 L 436.5 52.4 L 436.5 52.4 Q 435 53.7 435 55.8 L 435 55.8 L 435 55.8 Q 435 58.7 437.6 58.7 L 437.6 58.7 L 437.6 58.7 Q 441.8 58.7 444.2 48.9 L 444.2 48.9 L 444.2 48.9 Q 444.9 46 445.6 43 Z" fill="url(#editing-gradient-gradient)"></path></g></g><style>text {
  font-size: 64px;
  font-family: Arial Black;
  dominant-baseline: central;
  text-anchor: middle;
}</style></svg>